<svg width="26" height="21" viewBox="0 0 26 21" fill="none" xmlns="http://www.w3.org/2000/svg">
<path d="M20.2 13.3673C21.2709 13.3673 22.139 12.4992 22.139 11.4283C22.139 10.3575 21.2709 9.48938 20.2 9.48938C19.1292 9.48938 18.261 10.3575 18.261 11.4283C18.261 12.4992 19.1292 13.3673 20.2 13.3673Z" fill="black"/>
<path d="M5.95204 7.81236C7.02026 7.73642 7.82467 6.8089 7.74873 5.74068C7.6728 4.67245 6.74528 3.86804 5.67705 3.94398C4.60883 4.01991 3.80442 4.94743 3.88036 6.01566C3.95629 7.08388 4.88381 7.88829 5.95204 7.81236Z" fill="black"/>
<path d="M24.1198 7.68001C23.6063 7.16343 22.9958 6.75348 22.3233 6.47373C21.6509 6.19398 20.9297 6.04996 20.2014 6.04996C19.4731 6.04996 18.7519 6.19398 18.0795 6.47373C17.407 6.75348 16.7965 7.16343 16.283 7.68001C15.2857 8.68236 14.6827 10.0104 14.5846 11.421C14.4901 12.7434 14.9091 14.112 15.7665 15.2783L17.4862 17.5755C16.6054 17.3053 16.0469 17.4875 15.5981 17.634C15.1953 17.7656 14.9043 17.8606 14.3375 17.6856C13.7617 17.508 13.5412 17.2411 13.2621 16.903C12.9507 16.5262 12.5631 16.0566 11.6881 15.7867C10.8038 15.514 10.244 15.6968 9.79425 15.8437C9.39122 15.9751 9.10052 16.0701 8.53383 15.8953C7.95808 15.7177 7.73757 15.4507 7.45843 15.1128C7.27524 14.8906 7.06431 14.6368 6.74403 14.4103L10.2518 9.72455C11.1066 8.56185 11.5255 7.19324 11.431 5.87174C11.3331 4.4609 10.7301 3.13257 9.73269 2.13C9.21925 1.61344 8.60873 1.20349 7.93627 0.923752C7.2638 0.644012 6.54266 0.5 5.81433 0.5C5.086 0.5 4.36486 0.644012 3.69239 0.923752C3.01993 1.20349 2.40941 1.61344 1.89597 2.13C0.898704 3.13232 0.295812 4.46029 0.197667 5.8708C0.103192 7.19319 0.522179 8.5618 1.37957 9.72832L4.96392 14.5163C5.05823 14.6428 5.17955 14.7466 5.31906 14.8203C5.38462 14.904 5.47423 14.9656 5.57584 14.9968C6.15159 15.1745 6.3721 15.4414 6.65123 15.7794C6.96261 16.1563 7.35019 16.6258 8.22523 16.8958C9.10947 17.1686 9.66931 16.9858 10.1191 16.8389C10.5218 16.7073 10.8129 16.6123 11.3795 16.7872C11.9552 16.9648 12.1758 17.2317 12.4549 17.5698C12.7663 17.9466 13.1538 18.4162 14.0289 18.6861C14.9134 18.9589 15.4731 18.7762 15.9229 18.6292C16.3257 18.4978 16.6167 18.4028 17.1835 18.5776C17.7592 18.7553 17.9799 19.0225 18.2591 19.3602C18.5705 19.7371 18.9581 20.2067 19.8333 20.4766C19.9202 20.5037 20.0127 20.5073 20.1015 20.4871C20.1344 20.4901 20.1676 20.4923 20.201 20.4923C20.3662 20.493 20.5292 20.4548 20.6769 20.3809C20.8246 20.3069 20.9529 20.1993 21.0513 20.0666L24.6384 15.2749C25.4933 14.1122 25.9121 12.7437 25.8177 11.4222C25.72 10.0112 25.1172 8.68272 24.1198 7.68001ZM5.8143 8.86401C5.12635 8.86157 4.46049 8.62082 3.93004 8.18273C3.39959 7.74465 3.03734 7.13629 2.90492 6.46119C2.7725 5.78609 2.87811 5.08596 3.20376 4.47995C3.52941 3.87395 4.05499 3.3995 4.69105 3.13736C5.32711 2.87522 6.03436 2.84158 6.69243 3.04217C7.35051 3.24276 7.91874 3.66517 8.30044 4.23754C8.68214 4.8099 8.85371 5.49685 8.78597 6.18147C8.71822 6.86609 8.41534 7.50608 7.92887 7.99254C7.65155 8.27041 7.32186 8.49052 6.95889 8.6401C6.59592 8.78969 6.20689 8.8658 5.8143 8.86401ZM22.3156 13.5425C21.8261 14.0354 21.1808 14.3432 20.4897 14.4134C19.7986 14.4835 19.1046 14.3118 18.5261 13.9274C17.9475 13.543 17.5202 12.9697 17.3171 12.3055C17.114 11.6412 17.1477 10.927 17.4124 10.2848C17.6771 9.64258 18.1564 9.1121 18.7686 8.78383C19.3808 8.45557 20.0878 8.34987 20.7693 8.48476C21.4507 8.61965 22.0641 8.98678 22.5051 9.52352C22.946 10.0603 23.1871 10.7334 23.1871 11.428C23.1889 11.8206 23.1128 12.2096 22.9632 12.5726C22.8136 12.9355 22.5935 13.2652 22.3156 13.5425Z" fill="black"/>
</svg>
