<svg width="21" height="21" viewBox="0 0 21 21" fill="none" xmlns="http://www.w3.org/2000/svg">
<path d="M17.8758 3.42349C15.9789 1.53434 13.4691 0.488281 10.811 0.488281C8.15687 0.488281 5.65492 1.53824 3.76187 3.42739C1.87272 5.31654 0.830566 7.8302 0.830566 10.4844C0.830566 13.1425 1.86882 15.6522 3.75797 17.5531C5.65492 19.4578 8.15687 20.5117 10.811 20.5117C12.1538 20.5117 13.4574 20.2385 14.6947 19.7115C15.8852 19.2041 16.9547 18.4703 17.8797 17.5492C18.8048 16.628 19.5269 15.5546 20.0343 14.3642C20.5612 13.1268 20.8306 11.8193 20.8306 10.4805C20.8306 7.82239 19.7806 5.31654 17.8758 3.42349ZM16.7751 16.4446C15.167 18.0527 13.0515 18.9387 10.811 18.9387C6.17014 18.9387 2.39185 15.1448 2.39185 10.4805C2.39185 8.24393 3.27007 6.1323 4.86648 4.53589C6.46288 2.93948 8.57061 2.06126 10.811 2.06126C15.4754 2.06126 19.2693 5.83566 19.2693 10.4805C19.2693 12.717 18.3833 14.8364 16.7751 16.4446Z" fill="black"/>
<path d="M11.6307 8.46641V3.72793C11.6307 3.29858 11.2794 2.94729 10.8501 2.94729C10.4207 2.94729 10.0694 3.29858 10.0694 3.72793V8.4508C9.24977 8.75916 8.66819 9.5476 8.66819 10.4727C8.66819 11.6631 9.63619 12.635 10.8306 12.635C12.0249 12.635 12.9929 11.667 12.9929 10.4727C12.9929 9.56321 12.427 8.78648 11.6307 8.46641ZM10.8306 11.0738C10.4988 11.0738 10.2295 10.8044 10.2295 10.4727C10.2295 10.1409 10.4988 9.87158 10.8306 9.87158C11.1623 9.87158 11.4317 10.1409 11.4317 10.4727C11.4317 10.8044 11.1623 11.0738 10.8306 11.0738Z" fill="black"/>
<path d="M5.5027 9.69983H4.68303C4.25367 9.69983 3.90238 10.0511 3.90238 10.4805C3.90238 10.9098 4.25367 11.2611 4.68303 11.2611H5.5027C5.93205 11.2611 6.28334 10.9098 6.28334 10.4805C6.28334 10.0511 5.93205 9.69983 5.5027 9.69983Z" fill="black"/>
<path d="M15.8852 9.69983C15.4559 9.69983 15.1046 10.0511 15.1046 10.4805C15.1046 10.9098 15.4559 11.2611 15.8852 11.2611H16.7049C17.1342 11.2611 17.4855 10.9098 17.4855 10.4805C17.4855 10.0511 17.1342 9.69983 16.7049 9.69983H15.8852Z" fill="black"/>
<path d="M15.5222 5.22286C15.1904 4.94573 14.6986 4.99257 14.4215 5.32434L13.8985 5.95666C13.6214 6.28843 13.6682 6.78023 14 7.05736C14.1444 7.17836 14.3239 7.23691 14.4996 7.23691C14.7221 7.23691 14.9484 7.13933 15.1007 6.95588L15.6237 6.32356C15.9008 5.99179 15.854 5.49998 15.5222 5.22286Z" fill="black"/>
<path d="M7.06007 5.36729C6.78295 5.03552 6.29114 4.98868 5.95937 5.26581C5.6276 5.54293 5.58076 6.03474 5.85789 6.36651L6.38092 6.99883C6.53705 7.18618 6.75953 7.27986 6.98201 7.27986C7.15765 7.27986 7.3333 7.22131 7.48162 7.10031C7.81339 6.82318 7.86023 6.33138 7.5831 5.99961L7.06007 5.36729Z" fill="black"/>
</svg>
