<svg width="21" height="21" viewBox="0 0 21 21" fill="none" xmlns="http://www.w3.org/2000/svg">
<path d="M10.8306 0.5C8.85276 0.5 6.91936 1.08649 5.27487 2.1853C3.63038 3.28412 2.34865 4.8459 1.59178 6.67317C0.834899 8.50043 0.636866 10.5111 1.02272 12.4509C1.40857 14.3907 2.36098 16.1725 3.7595 17.5711C5.15803 18.9696 6.93986 19.922 8.87967 20.3079C10.8195 20.6937 12.8301 20.4957 14.6574 19.7388C16.4847 18.9819 18.0465 17.7002 19.1453 16.0557C20.2441 14.4112 20.8306 12.4778 20.8306 10.5C20.8275 7.84877 19.773 5.30699 17.8983 3.43228C16.0236 1.55758 13.4818 0.503033 10.8306 0.5ZM10.8306 18.5C9.24832 18.5 7.7016 18.0308 6.38601 17.1518C5.07042 16.2727 4.04504 15.0233 3.43953 13.5615C2.83403 12.0997 2.67561 10.4911 2.98429 8.93928C3.29297 7.38743 4.0549 5.96197 5.17372 4.84315C6.29254 3.72433 7.718 2.9624 9.26985 2.65372C10.8217 2.34504 12.4302 2.50346 13.892 3.10896C15.3538 3.71447 16.6033 4.73984 17.4823 6.05544C18.3614 7.37103 18.8306 8.91775 18.8306 10.5C18.8281 12.621 17.9845 14.6544 16.4847 16.1542C14.985 17.6539 12.9516 18.4976 10.8306 18.5ZM11.8306 10.249V5.5C11.8306 5.23478 11.7252 4.98043 11.5377 4.79289C11.3501 4.60536 11.0958 4.5 10.8306 4.5C10.5654 4.5 10.311 4.60536 10.1235 4.79289C9.93593 4.98043 9.83057 5.23478 9.83057 5.5V10.5C9.83071 10.6647 9.87128 10.8268 9.94873 10.9722L11.4487 13.771C11.574 14.0049 11.787 14.1794 12.0409 14.2563C12.2948 14.3331 12.5689 14.3059 12.8027 14.1807C13.0366 14.0554 13.2112 13.8424 13.288 13.5885C13.3648 13.3346 13.3376 13.0605 13.2124 12.8267L11.8306 10.249Z" fill="black"/>
</svg>
